
		<svg xmlns="http://www.w3.org/2000/svg" xmlns:xlink="http://www.w3.org/1999/xlink" version="1.1" width="3056.115725897878" height="701.4465737234734">
			
			<g transform="scale(2.8057862948938936) translate(10, 10)">
				<defs id="SvgjsDefs2037"/><g id="SvgjsG2038" featureKey="root" fill="#fff" transform="matrix(1,0,0,1,0,0)"/><g id="SvgjsG2039" featureKey="symbol1" fill="#fff" transform="matrix(3.3333332538604736,0,0,3.3333332538604736,-3.666666666666667,8.333333333333332)"><g xmlns="http://www.w3.org/2000/svg" class="st0" style="display: none;"><g class="st1" style="display: inline;"><rect x="2" y="2" class="st2" width="60" height="60" style="fill: none; stroke: #fff; stroke-width: 0.1; stroke-miterlimit: 10;"/><line class="st2" x1="32" y1="2" x2="32" y2="62" style="fill: none; stroke: #fff; stroke-width: 0.1; stroke-miterlimit: 10;"/><line class="st2" x1="62" y1="32" x2="2" y2="32" style="fill: none; stroke: #fff; stroke-width: 0.1; stroke-miterlimit: 10;"/><line class="st2" x1="2" y1="2" x2="62" y2="62" style="fill: none; stroke: #fff; stroke-width: 0.1; stroke-miterlimit: 10;"/><rect x="10" y="10" class="st2" width="44" height="44" style="fill: none; stroke: #fff; stroke-width: 0.1; stroke-miterlimit: 10;"/><line class="st2" x1="62" y1="2" x2="2" y2="62" style="fill: none; stroke: #fff; stroke-width: 0.1; stroke-miterlimit: 10;"/><line class="st2" x1="2" y1="32" x2="32" y2="2" style="fill: none; stroke: #fff; stroke-width: 0.1; stroke-miterlimit: 10;"/><line class="st2" x1="32" y1="2" x2="62" y2="32" style="fill: none; stroke: #fff; stroke-width: 0.1; stroke-miterlimit: 10;"/><line class="st2" x1="62" y1="32" x2="32" y2="62" style="fill: none; stroke: #fff; stroke-width: 0.1; stroke-miterlimit: 10;"/><line class="st2" x1="32" y1="62" x2="2" y2="32" style="fill: none; stroke: #fff; stroke-width: 0.1; stroke-miterlimit: 10;"/><circle class="st2" cx="32" cy="32" r="21" style="fill: none; stroke: #fff; stroke-width: 0.1; stroke-miterlimit: 10;"/></g></g><path xmlns="http://www.w3.org/2000/svg" d="M14,26C7.4,26,2,20.6,2,14S7.4,2,14,2s12,5.4,12,12S20.6,26,14,26z M14,4C8.5,4,4,8.5,4,14s4.5,10,10,10s10-4.5,10-10  S19.5,4,14,4z"/><path xmlns="http://www.w3.org/2000/svg" d="M10,9c0-0.6,0.4-1,1-1h2V6h-2C9.3,6,8,7.3,8,9v3.2C8,12.4,8,13,7.6,13S6,13,6,13v2c0,0,1.2,0,1.6,0S8,15.6,8,15.8V19  c0,1.7,1.3,3,3,3h2v-2h-2c-0.6,0-1-0.4-1-1v-3.2c0-0.7-0.2-1.3-0.6-1.8c0.4-0.5,0.6-1.2,0.6-1.8V9z"/><path xmlns="http://www.w3.org/2000/svg" d="M18,9c0-0.6-0.4-1-1-1h-2V6h2c1.7,0,3,1.3,3,3v3.2c0,0.3,0,0.8,0.4,0.8s1.6,0,1.6,0v2c0,0-1.2,0-1.6,0S20,15.6,20,15.8V19  c0,1.7-1.3,3-3,3h-2v-2h2c0.6,0,1-0.4,1-1v-3.2c0-0.7,0.2-1.3,0.6-1.8c-0.4-0.5-0.6-1.2-0.6-1.8V9z"/><polygon xmlns="http://www.w3.org/2000/svg" points="46.2,56.6 41.8,50 46.2,43.4 47.8,44.6 44.2,50 47.8,55.4 "/><polygon xmlns="http://www.w3.org/2000/svg" points="53.8,56.6 52.2,55.4 55.8,50 52.2,44.6 53.8,43.4 58.2,50 "/><rect xmlns="http://www.w3.org/2000/svg" x="49" y="43.9" transform="matrix(-0.9864 -0.1641 0.1641 -0.9864 91.1106 107.5242)" width="2" height="12.2"/><path xmlns="http://www.w3.org/2000/svg" d="M32,41c-5,0-9-4-9-9s4-9,9-9s9,4,9,9S37,41,32,41z M32,25c-3.9,0-7,3.1-7,7s3.1,7,7,7s7-3.1,7-7S35.9,25,32,25z"/><path xmlns="http://www.w3.org/2000/svg" d="M36,50c0-0.5,0-1,0.1-1.5l0,0l-0.6,0.2L34.2,55h-4.4l-1.3-6.4l-0.6-0.2c-1.7-0.4-3.2-1.1-4.7-2l-0.5-0.3l-5.4,3.6l-3.1-3.1  l3.6-5.4l-0.3-0.5c-0.9-1.5-1.5-3-2-4.7l-0.2-0.6L9,34.2v-4.4l6.4-1.3l0.2-0.6l0,0C15,28,14.5,28,14,28c-1.3,0-2.5-0.2-3.6-0.5  L7,28.2v7.6l6.7,1.3c0.4,1.4,1,2.8,1.7,4.1L11.6,47l5.4,5.4l5.7-3.8c1.3,0.7,2.7,1.3,4.1,1.7l1.3,6.7h7.6l0.7-3.4  C36.2,52.5,36,51.3,36,50z"/><path xmlns="http://www.w3.org/2000/svg" d="M27.9,15.5L27.9,15.5l0.6-0.2L29.8,9h4.4l1.3,6.4l0.6,0.2c1.7,0.4,3.2,1.1,4.7,2l0.5,0.3l5.4-3.6l3.1,3.1l-3.6,5.4l0.3,0.5  c0.9,1.5,1.5,3,2,4.7l0.2,0.6l6.4,1.3v4.4l-6.4,1.3l-0.2,0.6l0,0C49,36,49.5,36,50,36c1.3,0,2.5,0.2,3.6,0.5l3.4-0.7v-7.6l-6.7-1.3  c-0.4-1.4-1-2.8-1.7-4.1l3.8-5.7L47,11.6l-5.7,3.8c-1.3-0.7-2.7-1.3-4.1-1.7L35.8,7h-7.6l-0.7,3.4c0.3,1.2,0.5,2.4,0.5,3.6  C28,14.5,28,15,27.9,15.5z"/><path xmlns="http://www.w3.org/2000/svg" d="M50,62c-6.6,0-12-5.4-12-12s5.4-12,12-12s12,5.4,12,12S56.6,62,50,62z M50,40c-5.5,0-10,4.5-10,10s4.5,10,10,10  s10-4.5,10-10S55.5,40,50,40z"/></g><g id="SvgjsG2040" featureKey="text1" fill="#fff" transform="matrix(3.9989585876464844,0,0,3.9989585876464844,223.51731319968758,65.02082790939859)"><path d="M10.56 5.52 c0.84 0.32 1.58 0.84 2.2 1.48 c1.4 1.42 2.1 3.24 2.1 5.42 s-0.7 4 -2.1 5.42 c-0.62 0.64 -1.36 1.16 -2.2 1.48 c-0.82 0.34 -1.7 0.52 -2.58 0.52 l-5.66 0 c-0.38 0 -0.7 -0.32 -0.7 -0.7 l0 -1.44 c0 -0.4 0.32 -0.72 0.7 -0.72 l5.6 0 c1.2 0 2.14 -0.42 2.9 -1.3 c0.74 -0.88 1.1 -1.94 1.1 -3.26 s-0.36 -2.38 -1.1 -3.26 c-0.76 -0.88 -1.7 -1.3 -2.9 -1.3 l-5.6 0 c-0.38 0 -0.7 -0.32 -0.7 -0.72 l0 -1.44 c0 -0.38 0.32 -0.7 0.7 -0.7 l5.66 0 c0.88 0 1.76 0.18 2.58 0.52 z M24.64 5.42 l5.6 13.22 c0.06 0.1 0.1 0.22 0.1 0.34 c0 0.38 -0.3 0.7 -0.7 0.7 l0 0 l-1.66 0 c-0.28 0 -0.54 -0.16 -0.64 -0.42 l-1.46 -3.44 l-5.66 0 l-1.44 3.44 c-0.1 0.26 -0.36 0.42 -0.64 0.42 l-1.66 0 c-0.24 0 -0.46 -0.12 -0.58 -0.32 c-0.14 -0.18 -0.16 -0.44 -0.06 -0.64 l5.64 -13.3 c0.1 -0.26 0.36 -0.42 0.64 -0.42 l1.88 0 c0.28 0 0.54 0.16 0.64 0.42 z M23.060000000000002 9.06 l-1.66 3.98 l3.32 0 z M43.7 5 c0.22 0 0.44 0.12 0.58 0.3 c0.12 0.2 0.16 0.44 0.06 0.66 l-5.38 13.28 c-0.1 0.26 -0.36 0.44 -0.64 0.44 l-1.72 0 c-0.3 0 -0.54 -0.18 -0.66 -0.44 l-5.38 -13.28 c-0.08 -0.22 -0.06 -0.46 0.08 -0.66 c0.12 -0.18 0.34 -0.3 0.58 -0.3 l1.64 0 c0.28 0 0.54 0.18 0.64 0.44 l3.96 9.94 l3.94 -9.94 c0.12 -0.26 0.36 -0.44 0.66 -0.44 l1.64 0 z M48.28 5 c0.38 0 0.7 0.32 0.7 0.7 l0 13.28 c0 0.38 -0.32 0.7 -0.7 0.7 l-1.5 0 c-0.38 0 -0.7 -0.32 -0.7 -0.7 l0 -13.28 c0 -0.38 0.32 -0.7 0.7 -0.7 l1.5 0 z M61.06 5.5 c0.82 0.34 1.56 0.84 2.18 1.48 c1.38 1.4 2.08 3.2 2.08 5.36 s-0.7 3.96 -2.08 5.36 c-0.62 0.64 -1.36 1.14 -2.18 1.48 s-1.66 0.5 -2.54 0.5 l-5.6 0 c-0.38 0 -0.7 -0.32 -0.7 -0.7 l0 -13.28 c0 -0.38 0.32 -0.7 0.7 -0.7 l5.6 0 c0.88 0 1.74 0.18 2.54 0.5 z M55.120000000000005 7.82 l0 9.04 l3.34 0 c1.18 0 2.12 -0.42 2.86 -1.3 c0.74 -0.86 1.1 -1.92 1.1 -3.22 s-0.36 -2.36 -1.1 -3.22 c-0.74 -0.88 -1.68 -1.3 -2.86 -1.3 l-3.34 0 z M77.52000000000001 12.42 c1.14 0.72 1.76 1.78 1.76 3.06 c0 1.5 -0.58 2.66 -1.72 3.46 c-0.8 0.58 -1.86 0.92 -3.14 1.06 l-0.08 0 c-0.16 0 -0.34 -0.06 -0.46 -0.18 c-0.16 -0.14 -0.24 -0.32 -0.24 -0.52 l0 -1.44 c0 -0.36 0.28 -0.66 0.62 -0.7 c2.08 -0.24 2.08 -1.2 2.08 -1.62 c0 -0.3 -0.1 -0.5 -0.36 -0.68 c-0.4 -0.28 -0.9 -0.5 -1.5 -0.68 c-0.1 -0.02 -0.18 -0.06 -0.26 -0.08 l-0.06 -0.02 c-0.58 -0.16 -1.2 -0.32 -1.84 -0.46 c-0.24 -0.04 -0.5 -0.12 -0.8 -0.2 c-0.54 -0.14 -1.06 -0.32 -1.52 -0.5 c-0.76 -0.32 -1.42 -0.74 -1.94 -1.26 c-0.58 -0.58 -0.88 -1.36 -0.88 -2.32 c0 -1.32 0.52 -2.4 1.52 -3.22 c0.72 -0.6 1.7 -0.96 2.92 -1.12 c0.2 -0.02 0.4 0.04 0.56 0.18 c0.14 0.14 0.22 0.32 0.22 0.52 l0 1.44 c0 0.34 -0.24 0.64 -0.58 0.7 c-0.2 0.02 -0.36 0.06 -0.5 0.1 c-0.38 0.14 -0.66 0.28 -0.84 0.44 c-0.16 0.14 -0.26 0.28 -0.32 0.42 c-0.06 0.2 -0.1 0.42 -0.1 0.64 c0 0.06 0 0.16 0.18 0.34 c0.2 0.2 0.48 0.36 0.82 0.5 c0.24 0.1 0.54 0.2 0.84 0.3 c0.18 0.04 0.36 0.1 0.54 0.14 c0.56 0.14 1.12 0.28 1.7 0.42 c0.08 0.02 0.16 0.04 0.26 0.06 l0.12 0.04 c0.52 0.14 0.96 0.26 1.36 0.4 c0.6 0.2 1.16 0.46 1.64 0.78 z M74.18 7.9 c-0.32 -0.08 -0.54 -0.36 -0.54 -0.7 l0 -1.46 c0 -0.2 0.1 -0.4 0.26 -0.54 c0.14 -0.12 0.36 -0.18 0.56 -0.14 c1.16 0.18 2.12 0.58 2.86 1.2 c1 0.82 1.54 1.88 1.6 3.16 c0.02 0.2 -0.06 0.38 -0.18 0.52 c-0.14 0.14 -0.32 0.22 -0.52 0.22 l-1.56 0 c-0.34 0 -0.64 -0.26 -0.68 -0.62 c-0.08 -0.5 -0.3 -1.24 -1.64 -1.62 c-0.04 0 -0.06 0 -0.08 -0.02 l-0.08 0 z M71.84 17.08 c0.34 0.06 0.56 0.36 0.56 0.68 l0 1.48 c0 0.2 -0.08 0.4 -0.24 0.54 c-0.12 0.1 -0.28 0.16 -0.46 0.16 l-0.1 0 c-1.24 -0.18 -2.28 -0.6 -3.06 -1.22 c-1.02 -0.82 -1.62 -1.98 -1.76 -3.46 c-0.02 -0.2 0.04 -0.4 0.18 -0.54 c0.14 -0.16 0.32 -0.24 0.52 -0.24 l1.58 0 c0.38 0 0.68 0.3 0.7 0.66 c0.04 0.68 0.36 1.18 0.98 1.54 c0.32 0.18 0.68 0.3 1.1 0.4 z M92.18 16.96 c0.4 0 0.7 0.32 0.7 0.72 l0 1.46 c0 0.38 -0.3 0.7 -0.7 0.7 l-9.88 0 c-0.38 0 -0.7 -0.32 -0.7 -0.7 l0 -1.46 c0 -0.4 0.32 -0.72 0.7 -0.72 l9.88 0 z M82.3 13.86 c-0.38 0 -0.7 -0.32 -0.7 -0.7 l0 -1.5 c0 -0.38 0.32 -0.7 0.7 -0.7 l8.98 0 c0.4 0 0.72 0.32 0.72 0.7 l0 1.5 c0 0.38 -0.32 0.7 -0.72 0.7 l-8.98 0 z M92.18 5 c0.4 0 0.7 0.32 0.7 0.7 l0 1.46 c0 0.4 -0.3 0.72 -0.7 0.72 l-9.88 0 c-0.38 0 -0.7 -0.32 -0.7 -0.72 l0 -1.46 c0 -0.38 0.32 -0.7 0.7 -0.7 l9.88 0 z M107.56 5 c0.38 0 0.7 0.32 0.7 0.7 l0 13.4 c0 0.38 -0.32 0.7 -0.7 0.7 l-1.76 0 c-0.22 0 -0.44 -0.1 -0.58 -0.28 l-9.78 -13.4 c-0.16 -0.22 -0.18 -0.5 -0.06 -0.74 s0.36 -0.38 0.62 -0.38 l1.76 0 c0.22 0 0.44 0.1 0.56 0.28 l7.02 9.54 l0 -9.12 c0 -0.38 0.3 -0.7 0.7 -0.7 l1.52 0 z M97.52000000000001 14.7 c0.38 0 0.7 0.3 0.7 0.7 l0 3.7 c0 0.38 -0.32 0.7 -0.7 0.7 l-1.52 0 c-0.38 0 -0.7 -0.32 -0.7 -0.7 l0 -3.7 c0 -0.4 0.32 -0.7 0.7 -0.7 l1.52 0 z M121.28000000000002 12.42 c1.14 0.72 1.76 1.78 1.76 3.06 c0 1.5 -0.58 2.66 -1.72 3.46 c-0.8 0.58 -1.86 0.92 -3.14 1.06 l-0.08 0 c-0.16 0 -0.34 -0.06 -0.46 -0.18 c-0.16 -0.14 -0.24 -0.32 -0.24 -0.52 l0 -1.44 c0 -0.36 0.28 -0.66 0.62 -0.7 c2.08 -0.24 2.08 -1.2 2.08 -1.62 c0 -0.3 -0.1 -0.5 -0.36 -0.68 c-0.4 -0.28 -0.9 -0.5 -1.5 -0.68 c-0.1 -0.02 -0.18 -0.06 -0.26 -0.08 l-0.06 -0.02 c-0.58 -0.16 -1.2 -0.32 -1.84 -0.46 c-0.24 -0.04 -0.5 -0.12 -0.8 -0.2 c-0.54 -0.14 -1.06 -0.32 -1.52 -0.5 c-0.76 -0.32 -1.42 -0.74 -1.94 -1.26 c-0.58 -0.58 -0.88 -1.36 -0.88 -2.32 c0 -1.32 0.52 -2.4 1.52 -3.22 c0.72 -0.6 1.7 -0.96 2.92 -1.12 c0.2 -0.02 0.4 0.04 0.56 0.18 c0.14 0.14 0.22 0.32 0.22 0.52 l0 1.44 c0 0.34 -0.24 0.64 -0.58 0.7 c-0.2 0.02 -0.36 0.06 -0.5 0.1 c-0.38 0.14 -0.66 0.28 -0.84 0.44 c-0.16 0.14 -0.26 0.28 -0.32 0.42 c-0.06 0.2 -0.1 0.42 -0.1 0.64 c0 0.06 0 0.16 0.18 0.34 c0.2 0.2 0.48 0.36 0.82 0.5 c0.24 0.1 0.54 0.2 0.84 0.3 c0.18 0.04 0.36 0.1 0.54 0.14 c0.56 0.14 1.12 0.28 1.7 0.42 c0.08 0.02 0.16 0.04 0.26 0.06 l0.12 0.04 c0.52 0.14 0.96 0.26 1.36 0.4 c0.6 0.2 1.16 0.46 1.64 0.78 z M117.94000000000001 7.9 c-0.32 -0.08 -0.54 -0.36 -0.54 -0.7 l0 -1.46 c0 -0.2 0.1 -0.4 0.26 -0.54 c0.14 -0.12 0.36 -0.18 0.56 -0.14 c1.16 0.18 2.12 0.58 2.86 1.2 c1 0.82 1.54 1.88 1.6 3.16 c0.02 0.2 -0.06 0.38 -0.18 0.52 c-0.14 0.14 -0.32 0.22 -0.52 0.22 l-1.56 0 c-0.34 0 -0.64 -0.26 -0.68 -0.62 c-0.08 -0.5 -0.3 -1.24 -1.64 -1.62 c-0.04 0 -0.06 0 -0.08 -0.02 l-0.08 0 z M115.60000000000001 17.08 c0.34 0.06 0.56 0.36 0.56 0.68 l0 1.48 c0 0.2 -0.08 0.4 -0.24 0.54 c-0.12 0.1 -0.28 0.16 -0.46 0.16 l-0.1 0 c-1.24 -0.18 -2.28 -0.6 -3.06 -1.22 c-1.02 -0.82 -1.62 -1.98 -1.76 -3.46 c-0.02 -0.2 0.04 -0.4 0.18 -0.54 c0.14 -0.16 0.32 -0.24 0.52 -0.24 l1.58 0 c0.38 0 0.68 0.3 0.7 0.66 c0.04 0.68 0.36 1.18 0.98 1.54 c0.32 0.18 0.68 0.3 1.1 0.4 z M131.16 5.16 c0.16 0.14 0.24 0.34 0.24 0.54 l0 1.5 c0 0.34 -0.22 0.62 -0.56 0.7 c-0.86 0.18 -1.58 0.58 -2.18 1.22 c-0.82 0.86 -1.22 1.96 -1.22 3.34 c0 1.36 0.4 2.46 1.22 3.34 c0.6 0.62 1.32 1.02 2.18 1.2 c0.34 0.08 0.56 0.36 0.56 0.7 l0 1.5 c0 0.2 -0.08 0.4 -0.24 0.54 c-0.14 0.1 -0.3 0.16 -0.46 0.16 l-0.12 0 c-1.56 -0.26 -2.9 -0.98 -3.98 -2.1 c-1.38 -1.42 -2.08 -3.22 -2.08 -5.34 s0.7 -3.92 2.08 -5.36 c1.08 -1.12 2.42 -1.82 3.98 -2.08 c0.2 -0.04 0.42 0.02 0.58 0.14 z M137.44 7.1 c1.38 1.44 2.08 3.22 2.08 5.36 c0 2.12 -0.7 3.92 -2.08 5.34 c-1.08 1.12 -2.42 1.84 -3.98 2.1 l-0.12 0 c-0.16 0 -0.32 -0.06 -0.46 -0.16 c-0.16 -0.14 -0.24 -0.34 -0.24 -0.54 l0 -1.5 c0 -0.34 0.22 -0.62 0.56 -0.7 c0.86 -0.18 1.58 -0.58 2.18 -1.2 c0.82 -0.88 1.22 -1.98 1.22 -3.34 c0 -1.38 -0.4 -2.48 -1.22 -3.34 c-0.6 -0.64 -1.32 -1.04 -2.18 -1.22 c-0.34 -0.08 -0.56 -0.36 -0.56 -0.7 l0 -1.5 c0 -0.2 0.08 -0.4 0.24 -0.54 c0.16 -0.12 0.38 -0.18 0.58 -0.14 c1.56 0.26 2.9 0.96 3.98 2.08 z M144.14000000000001 5 c0.38 0 0.7 0.32 0.7 0.7 l0 13.4 c0 0.38 -0.32 0.7 -0.7 0.7 l-1.52 0 c-0.38 0 -0.7 -0.32 -0.7 -0.7 l0 -13.4 c0 -0.38 0.32 -0.7 0.7 -0.7 l1.52 0 z M151.44 16.94 c0.4 0 0.7 0.32 0.7 0.7 l0 1.46 c0 0.38 -0.3 0.7 -0.7 0.7 l-4.66 0 c-0.4 0 -0.7 -0.32 -0.7 -0.7 l0 -1.46 c0 -0.38 0.3 -0.7 0.7 -0.7 l4.66 0 z M156.3 10.94 c0.4 0 0.7 0.32 0.7 0.72 l0 7.48 c0 0.38 -0.3 0.7 -0.7 0.7 l-1.52 0 c-0.38 0 -0.7 -0.32 -0.7 -0.7 l0 -7.48 c0 -0.4 0.32 -0.72 0.7 -0.72 l1.52 0 z M156.3 5 c0.4 0 0.7 0.32 0.7 0.7 l0 3.7 c0 0.4 -0.3 0.72 -0.7 0.72 l-1.52 0 c-0.38 0 -0.7 -0.32 -0.7 -0.72 l0 -3.7 c0 -0.38 0.32 -0.7 0.7 -0.7 l1.52 0 z M162.14000000000001 16.28 c0.38 0 0.7 0.3 0.7 0.7 l0 2.08 c0 0.38 -0.32 0.7 -0.7 0.7 l-1.82 0 c-0.4 0 -0.7 -0.32 -0.7 -0.7 l0 -2.08 c0 -0.4 0.3 -0.7 0.7 -0.7 l1.82 0 z M169.98 8.22 c-0.52 0.22 -0.98 0.54 -1.34 0.96 c-0.76 0.84 -1.12 1.94 -1.12 3.32 s0.36 2.48 1.12 3.34 c0.78 0.88 1.9 1.3 3.44 1.3 c0.82 0 1.5 -0.2 2.1 -0.6 c0.62 -0.42 1.06 -0.94 1.36 -1.64 c0.1 -0.26 0.36 -0.42 0.64 -0.42 l1.58 0 c0.22 0 0.44 0.1 0.56 0.28 c0.14 0.2 0.18 0.42 0.1 0.64 c-0.5 1.4 -1.32 2.5 -2.44 3.3 c-1.2 0.86 -2.62 1.3 -4.24 1.3 c-2.14 0 -3.9 -0.74 -5.24 -2.22 c-1.24 -1.4 -1.88 -3.18 -1.88 -5.28 s0.64 -3.88 1.88 -5.28 c1.34 -1.48 3.1 -2.22 5.24 -2.22 c1.62 0 3.04 0.44 4.24 1.3 c1.12 0.8 1.94 1.92 2.44 3.3 c0.08 0.22 0.04 0.46 -0.1 0.64 c-0.12 0.18 -0.34 0.28 -0.56 0.28 l-1.58 0 c-0.28 0 -0.54 -0.16 -0.64 -0.42 c-0.3 -0.7 -0.74 -1.22 -1.36 -1.64 c-0.6 -0.4 -1.28 -0.6 -2.1 -0.6 c-0.86 0 -1.56 0.12 -2.1 0.36 z M187.32 5 c2.16 0 3.98 0.74 5.38 2.2 c1.36 1.42 2.06 3.2 2.06 5.3 s-0.7 3.88 -2.06 5.3 c-1.4 1.46 -3.22 2.2 -5.38 2.2 s-3.98 -0.74 -5.38 -2.2 c-1.36 -1.42 -2.06 -3.2 -2.06 -5.3 s0.7 -3.88 2.06 -5.3 c1.4 -1.46 3.22 -2.2 5.38 -2.2 z M187.32 17.14 c1.4 0 2.48 -0.44 3.32 -1.32 c0.82 -0.86 1.22 -1.96 1.22 -3.32 s-0.4 -2.44 -1.22 -3.32 c-0.84 -0.88 -1.92 -1.32 -3.32 -1.32 s-2.48 0.44 -3.32 1.32 c-0.82 0.88 -1.22 1.96 -1.22 3.32 s0.4 2.46 1.22 3.32 c0.84 0.88 1.92 1.32 3.32 1.32 z M210.78 5 c0.38 0 0.7 0.32 0.7 0.7 l0 13.28 c0 0.38 -0.32 0.7 -0.7 0.7 l-1.5 0 c-0.38 0 -0.7 -0.32 -0.7 -0.7 l0 -8.96 l-3.68 4.72 c-0.12 0.16 -0.32 0.26 -0.54 0.26 l0 0 c-0.22 0 -0.42 -0.1 -0.54 -0.26 l-3.76 -4.74 l0 8.98 c0 0.38 -0.32 0.7 -0.7 0.7 l-1.5 0 c-0.38 0 -0.7 -0.32 -0.7 -0.7 l0 -13.28 c0 -0.38 0.32 -0.7 0.7 -0.7 l1.74 0 c0.22 0 0.42 0.1 0.56 0.28 l4.2 5.56 l4.12 -5.56 c0.12 -0.18 0.34 -0.28 0.56 -0.28 l1.74 0 z"/></g>
			</g>
		</svg>
	